<svg width="960" height="760" viewBox="0 0 960 760" fill="none" xmlns="http://www.w3.org/2000/svg">
  <rect width="960" height="760" rx="48" fill="#E8F2F6"/>
  <rect x="48" y="64" width="864" height="632" rx="38" fill="#FFFDF9"/>
  <rect x="48" y="64" width="864" height="236" rx="38" fill="#B8DDED"/>
  <circle cx="220" cy="204" r="74" fill="#8A5A44"/>
  <rect x="162" y="252" width="118" height="230" rx="56" fill="#A46A51"/>
  <path d="M260 314C260 279.758 287.758 252 322 252H368C402.242 252 430 279.758 430 314V470H260V314Z" fill="#D1A683"/>
  <circle cx="482" cy="234" r="60" fill="#E8B18C"/>
  <rect x="438" y="274" width="90" height="226" rx="42" fill="#C9855D"/>
  <rect x="530" y="330" width="122" height="28" rx="14" transform="rotate(-24 530 330)" fill="#8EC5DB"/>
  <rect x="620" y="366" width="174" height="154" rx="26" fill="#F5EFE7"/>
  <rect x="654" y="406" width="108" height="14" rx="7" fill="#BCCAD2"/>
  <rect x="654" y="438" width="74" height="14" rx="7" fill="#D6E0E5"/>
  <rect x="142" y="560" width="292" height="76" rx="24" fill="#F6E0D4"/>
  <rect x="492" y="556" width="312" height="76" rx="24" fill="#D9EBF2"/>
</svg>