<svg xmlns="http://www.w3.org/2000/svg" width="512" height="512" viewBox="0 0 512 512">
  <defs>
    <linearGradient id="bg" x1="0" x2="1" y1="0" y2="1">
      <stop offset="0%" stop-color="#0f766e"/>
      <stop offset="100%" stop-color="#14b8a6"/>
    </linearGradient>
  </defs>
  <rect width="512" height="512" rx="108" fill="url(#bg)"/>
  <circle cx="256" cy="256" r="146" fill="#ffffff" opacity="0.12"/>
  <path d="M166 283c0-54 40-96 91-96 48 0 89 32 92 78h-45c-5-21-20-33-46-33-30 0-49 21-49 51 0 31 19 52 49 52 25 0 40-13 46-34h45c-3 46-44 79-92 79-51 0-91-42-91-97z" fill="#fff"/>
</svg>
